<?xml version="1.0" encoding="UTF-8"?>
<svg width="24px" height="25px" viewBox="0 0 24 25" version="1.1" xmlns="http://www.w3.org/2000/svg" xmlns:xlink="http://www.w3.org/1999/xlink">
    <title>EEE0A0DB-C982-4279-83AC-B796364F6DB8</title>
    <g id="Library" stroke="none" stroke-width="1" fill="none" fill-rule="evenodd">
        <g id="My-HC" transform="translate(-784.000000, -569.000000)">
            <g id="invisible" transform="translate(784.000000, 569.700000)">
                <rect id="container" x="0" y="0" width="24" height="24"></rect>
                <path d="M20.2702357,4.06312896 C20.4437944,4.23670302 20.4630676,4.50612827 20.3280629,4.70099042 L20.2702044,4.77023574 L17.7043876,7.33613879 C18.8470188,8.07406122 19.9848172,9.03345009 21.1177766,10.212576 L21.4952504,10.613754 L21.8020538,10.9522305 C22.3050726,11.5161598 22.3100394,12.3662278 21.8136448,12.9359966 C18.5949097,16.6305061 15.3231044,18.5 11.999316,18.5 C10.5327112,18.5 9.07610778,18.1359313 7.6294998,17.4114359 L8.37817408,16.6620606 C9.58919852,17.2216758 10.7961837,17.5 11.999316,17.5 C14.9946212,17.5 18.0143727,15.7745285 21.0596578,12.2791072 C21.2044322,12.1129332 21.2212615,11.8752281 21.1126802,11.6944719 L21.0584746,11.6208663 L20.7571626,11.2884458 C19.4918729,9.91579456 18.2327398,8.84067641 16.9795322,8.05997485 L4.8535377,20.1855344 C4.65826689,20.3807879 4.3416844,20.3807738 4.14643092,20.185503 C3.97287227,20.011929 3.95359908,19.7425037 4.08860377,19.5476416 L4.1464623,19.4783962 L6.71800562,16.9056667 L6.36389944,16.6840719 C5.17960879,15.9156557 4.00207046,14.904432 2.83128112,13.6524236 L2.48024678,13.2695996 L2.18396938,12.9348095 C1.68823796,12.3657403 1.69251757,11.5169651 2.19396223,10.9529238 C5.41313394,7.33189439 8.67922387,5.5 11.9905222,5.5 C13.6089993,5.5 15.2180661,5.93774565 16.8177056,6.80852271 L19.563129,4.06309759 C19.7583998,3.86784411 20.0749823,3.86785815 20.2702357,4.06312896 Z M11.9905222,6.5 C9.00277445,6.5 5.98694445,8.19152784 2.94132247,11.6173429 C2.79507018,11.7818522 2.77569647,12.0190268 2.88210233,12.2008498 L2.93540243,12.2750118 L3.22641288,12.6038519 C4.63904285,14.1743573 6.04593082,15.3638666 7.44736428,16.1769538 L8.99096688,14.6355548 C8.37398441,13.9317095 8,13.0095291 8,12 C8,9.790861 9.790861,8 12,8 C13.0095291,8 13.9317095,8.37398441 14.6355548,8.99096688 L16.0770056,7.54866667 L15.7364057,7.38109903 C14.4819587,6.79264798 13.2334089,6.5 11.9905222,6.5 Z M15.3009974,9.74025524 C15.7419778,10.3831966 16,11.1614661 16,12 C16,14.209139 14.209139,16 12,16 C11.1614661,16 10.3831966,15.7419778 9.74025524,15.3009974 L10.4641038,14.5775545 C10.9133784,14.8458422 11.4386865,15 12,15 C13.6568542,15 15,13.6568542 15,12 C15,11.4386865 14.8458422,10.9133784 14.5775545,10.4641038 L15.3009974,9.74025524 Z M12,9 C10.3431458,9 9,10.3431458 9,12 C9,12.7328209 9.26275454,13.4042722 9.69919176,13.925282 L13.9262533,9.7000057 C13.4051068,9.26308125 12.7332764,9 12,9 Z" id="Shape" fill="#1D1A20"></path>
            </g>
        </g>
    </g>
</svg>