<svg width="32" height="32" viewBox="0 0 32 32" fill="none" xmlns="http://www.w3.org/2000/svg">
<path d="M19.6234 14.9098L14.3985 11.8933C13.6015 11.433 12.6053 12.0084 12.6053 12.9285V18.9615C12.6053 19.8816 13.6015 20.457 14.3985 19.9968L19.6234 16.9803C20.4203 16.52 20.4203 15.37 19.6234 14.9098Z" fill="white"/>
<path d="M29.8209 10.1611C29.0654 8.37468 27.9839 6.77079 26.6068 5.39325C25.2296 4.0161 23.6253 2.93462 21.8389 2.1791C19.9892 1.39649 18.0247 1 16 1C13.9753 1 12.0108 1.39689 10.1611 2.1791C8.37468 2.93462 6.77079 4.0161 5.39325 5.39325C4.0161 6.7704 2.93462 8.37468 2.1791 10.1611C1.39649 12.0108 1 13.9753 1 16C1 18.0247 1.39689 19.9892 2.1791 21.8389C2.93462 23.6253 4.0161 25.2292 5.39325 26.6068C6.7704 27.9839 8.37468 29.0654 10.1611 29.8209C12.0108 30.6035 13.9753 31 16 31C18.0247 31 19.9892 30.6031 21.8389 29.8209C23.6253 29.0654 25.2292 27.9839 26.6068 26.6068C27.9839 25.2296 29.0654 23.6253 29.8209 21.8389C30.6035 19.9892 31 18.0247 31 16C31 13.9753 30.6031 12.0108 29.8209 10.1611ZM24.9048 6.41894L22.4426 8.88115C20.8491 7.43825 18.769 6.52294 16.4782 6.41057V2.92267C19.7266 3.03982 22.6761 4.34644 24.9048 6.41933V6.41894ZM21.4369 21.4369C19.9848 22.8889 18.0538 23.6891 16 23.6891C13.9462 23.6891 12.0152 22.8893 10.5631 21.4369C9.11107 19.9848 8.31092 18.0538 8.31092 16C8.31092 13.9462 9.11067 12.0152 10.5631 10.5631C12.0152 9.11107 13.9462 8.31092 16 8.31092C18.0538 8.31092 19.9848 9.11067 21.4369 10.5631C22.8889 12.0152 23.6891 13.9462 23.6891 16C23.6891 18.0538 22.8893 19.9848 21.4369 21.4369ZM15.7601 6.4014C15.7713 6.4014 15.7828 6.4014 15.794 6.401C15.7828 6.401 15.7713 6.401 15.7601 6.4014ZM16.2056 6.401C16.2168 6.401 16.2283 6.401 16.2395 6.4014C16.2283 6.4014 16.2168 6.4014 16.2056 6.401ZM15.5214 2.92227V6.41017C13.2302 6.52254 11.1501 7.43785 9.55697 8.88075L7.09476 6.41854C9.32346 4.34564 12.273 3.03942 15.5214 2.92187V2.92227ZM6.41854 7.09516L8.88075 9.55737C7.43745 11.1509 6.52214 13.2314 6.41017 15.5226C6.41017 15.5226 6.41017 15.5222 6.41017 15.5218H2.92227C3.03942 12.2734 4.34604 9.32386 6.41894 7.09516H6.41854ZM2.92187 16.4782H6.40977C6.40977 16.4782 6.40977 16.4778 6.40977 16.4774C6.52214 18.7686 7.43745 20.8491 8.88035 22.4426L6.41814 24.9048C4.34524 22.6761 3.03902 19.7266 2.92147 16.4782H2.92187ZM7.09476 25.5811L9.55697 23.1189C11.1505 24.5618 13.2306 25.4771 15.5214 25.5894V29.0773C12.273 28.9602 9.32346 27.6536 7.09476 25.5807V25.5811ZM16.4778 29.0777V25.5898C18.769 25.4775 20.8487 24.5621 22.4422 23.1193L24.9044 25.5815C22.6757 27.6544 19.7262 28.9606 16.4778 29.0781V29.0777ZM25.5807 24.9048L23.1185 22.4426C24.5614 20.8491 25.4767 18.769 25.589 16.4782H29.0769C28.9598 19.7266 27.6532 22.6761 25.5803 24.9048H25.5807ZM25.5986 16.206C25.5986 16.2172 25.5986 16.2287 25.5982 16.2399C25.5982 16.2287 25.5982 16.2172 25.5986 16.206ZM25.5982 15.7605C25.5982 15.7717 25.5982 15.7832 25.5986 15.7944C25.5986 15.7832 25.5986 15.7717 25.5982 15.7605ZM25.5894 15.5222C25.4771 13.231 24.5618 11.1513 23.1189 9.55777L25.5811 7.09556C27.654 9.32426 28.9602 12.2738 29.0777 15.5222H25.5898H25.5894Z" fill="url(#paint0_linear_616_624)"/>
<defs>
<linearGradient id="paint0_linear_616_624" x1="5.39312" y1="26.6069" x2="26.6065" y2="5.39343" gradientUnits="userSpaceOnUse">
<stop stop-color="#FB248C"/>
<stop offset="1" stop-color="#FC8D43"/>
</linearGradient>
</defs>
</svg>
