<svg width="95" height="40" viewBox="0 0 95 40" fill="none" xmlns="http://www.w3.org/2000/svg">
<path d="M64.8531 10.8471V20.1374H61.5656V13.6204H58.4002V20.1374H55.1128V10.8464H64.8531V10.8471Z" fill="white"/>
<path fill-rule="evenodd" clip-rule="evenodd" d="M48.3609 20.4695C51.3038 20.4695 53.4892 18.6486 53.4892 15.8883C53.4892 13.2165 51.8768 11.4818 49.1821 11.4818C47.9385 11.4818 46.9124 11.9236 46.1395 12.6858C46.324 11.1104 47.6442 9.96025 49.0977 9.96025C49.4332 9.96025 51.9587 9.95487 51.9587 9.95487L53.3868 7.19702C53.3868 7.19702 50.2161 7.26985 48.7422 7.26985C45.3744 7.32907 43.0996 10.4182 43.0996 14.17C43.0996 18.541 45.3182 20.4695 48.3609 20.4695ZM48.3788 13.9246C49.4715 13.9246 50.229 14.6491 50.229 15.8879C50.229 17.0029 49.5559 17.9216 48.3788 17.9241C47.2529 17.9241 46.4953 17.0729 46.4953 15.9069C46.4953 14.6678 47.2529 13.9246 48.3788 13.9246Z" fill="white"/>
<path d="M40.4239 17.0271C40.4239 17.0271 39.6475 17.4787 38.488 17.5642C37.155 17.6041 35.9672 16.7544 35.9672 15.2449C35.9672 13.7724 37.0153 12.9285 38.4544 12.9285C39.3369 12.9285 40.5042 13.5457 40.5042 13.5457C40.5042 13.5457 41.3584 11.9639 41.8009 11.1729C40.9906 10.5532 39.9114 10.2134 38.6562 10.2134C35.4883 10.2134 33.0347 12.2977 33.0347 15.2262C33.0347 18.1921 35.3408 20.228 38.6562 20.1665C39.5829 20.1317 40.8613 19.8033 41.6405 19.2982L40.4239 17.0271Z" fill="white"/>
<path d="M0 8.27124L4.56025 16.4967V21.5139L0.00533473 29.7232L0 8.27124Z" fill="#5B57A2"/>
<path d="M17.5093 13.5037L21.7824 10.8608L30.5276 10.8525L17.5093 18.9003V13.5037Z" fill="#D90751"/>
<path d="M17.4852 8.22288L17.5094 19.1131L12.9385 16.2789V0L17.4852 8.22288Z" fill="#FAB718"/>
<path d="M30.5277 10.8525L21.7822 10.8607L17.4852 8.22288L12.9385 0L30.5277 10.8525Z" fill="#ED6F26"/>
<path d="M17.5094 29.769V24.4854L12.9385 21.7051L12.941 38.0001L17.5094 29.769Z" fill="#63B22F"/>
<path d="M21.772 27.15L4.55994 16.4967L0 8.27124L30.5093 27.1392L21.772 27.15Z" fill="#1487C9"/>
<path d="M12.9414 38.0001L17.5092 29.769L21.7716 27.1502L30.509 27.1394L12.9414 38.0001Z" fill="#017F36"/>
<path d="M0.00537109 29.7233L12.976 21.7053L8.61531 19.0054L4.56029 21.514L0.00537109 29.7233Z" fill="#984995"/>
<path d="M35.968 26.3899C35.8676 26.5191 35.7355 26.6166 35.577 26.6825C35.4144 26.7493 35.2404 26.7833 35.0649 26.7825C34.8903 26.7849 34.7167 26.7555 34.5524 26.6958C34.4049 26.6417 34.2701 26.5574 34.1564 26.4481C34.0442 26.3387 33.9561 26.2066 33.8978 26.0605C33.8348 25.9005 33.8033 25.7296 33.8053 25.5574C33.8053 25.3864 33.8344 25.228 33.895 25.0779C33.9531 24.9275 34.0375 24.7986 34.1432 24.6903C34.249 24.5798 34.3758 24.4956 34.5182 24.4297C34.6635 24.3664 34.822 24.3322 34.9962 24.3322C35.1838 24.3322 35.358 24.3559 35.5165 24.4031C35.6749 24.4506 35.8095 24.5298 35.9203 24.6406L35.7276 24.9699C35.6345 24.8847 35.5247 24.82 35.4054 24.7799C35.2919 24.7431 35.1734 24.7245 35.0542 24.7248C34.9488 24.7248 34.8484 24.7457 34.7508 24.7853C34.6546 24.8244 34.5667 24.8817 34.4919 24.9541C34.4154 25.0286 34.3551 25.1183 34.3149 25.2176C34.27 25.3202 34.249 25.4335 34.249 25.5599C34.249 25.6891 34.2725 25.805 34.3174 25.9051C34.3626 26.008 34.4231 26.0951 34.4997 26.1685C34.5763 26.2426 34.666 26.2977 34.769 26.3348C34.8722 26.3744 34.9805 26.3927 35.0966 26.3927C35.239 26.3927 35.3686 26.3636 35.4794 26.3082C35.5892 26.2547 35.6878 26.1805 35.77 26.0897L35.968 26.3899ZM36.5118 26.7271V24.3822H36.9292V26.1293L38.2864 24.3822H38.7038V26.7274H38.2864V24.9804L36.9292 26.7274L36.5118 26.7271ZM41.4684 26.3899C41.3658 26.5202 41.2311 26.621 41.0778 26.6825C40.915 26.7492 40.7409 26.7832 40.5653 26.7825C40.3908 26.7849 40.2173 26.7555 40.0532 26.6958C39.9055 26.6417 39.7706 26.5574 39.6568 26.4481C39.5446 26.3387 39.4565 26.2066 39.3983 26.0605C39.3352 25.9005 39.3037 25.7296 39.3057 25.5574C39.3057 25.3864 39.3349 25.228 39.3954 25.0779C39.4538 24.9275 39.5382 24.7986 39.6436 24.6903C39.7494 24.5798 39.8762 24.4956 40.0186 24.4297C40.1691 24.3628 40.3322 24.3296 40.4966 24.3322C40.6842 24.3322 40.8584 24.3559 41.0169 24.4031C41.1753 24.4506 41.31 24.5298 41.4211 24.6406L41.2281 24.9699C41.135 24.8847 41.0254 24.8199 40.9061 24.7799C40.7926 24.7431 40.6741 24.7245 40.5549 24.7248C40.3452 24.7255 40.1437 24.8076 39.9923 24.9541C39.9165 25.0291 39.8563 25.1187 39.8153 25.2176C39.7704 25.3202 39.7494 25.4335 39.7494 25.5599C39.7494 25.6891 39.7733 25.805 39.8181 25.9051C39.863 26.008 39.9236 26.0951 40.0001 26.1685C40.0767 26.2426 40.1668 26.2977 40.2697 26.3348C40.3726 26.3715 40.4809 26.3927 40.597 26.3927C40.7398 26.3927 40.8666 26.3636 40.9798 26.3082C41.0896 26.2547 41.1882 26.1805 41.2704 26.0897L41.4684 26.3899ZM41.6825 24.3822H43.8239V24.7986H42.9631V26.7271H42.5457V24.7986H41.685V24.3822H41.6825Z" fill="white"/>
<path fill-rule="evenodd" clip-rule="evenodd" d="M45.7733 26.7037C45.9318 26.6536 46.0664 26.577 46.1825 26.4719L46.0557 26.1451C45.9792 26.2138 45.8762 26.2717 45.7523 26.3192C45.628 26.3667 45.4881 26.3902 45.3349 26.3902C45.1052 26.3902 44.915 26.3297 44.7644 26.2059C44.6141 26.0817 44.5322 25.9082 44.5137 25.6865H46.32C46.3385 25.6048 46.3463 25.5127 46.3463 25.4047C46.3463 25.2438 46.3171 25.0991 46.2591 24.9674C46.205 24.8394 46.1261 24.7238 46.0269 24.6273C45.9263 24.5317 45.8077 24.4574 45.6782 24.4088C45.5427 24.3557 45.3984 24.3288 45.253 24.3296C45.0575 24.3296 44.8859 24.3638 44.7355 24.4271C44.5934 24.4875 44.4649 24.5762 44.3577 24.6881C44.2537 24.7993 44.1737 24.9312 44.123 25.0754C44.0672 25.2289 44.0394 25.3913 44.0411 25.5548C44.0411 25.7394 44.0728 25.9079 44.1308 26.0583C44.1873 26.204 44.2737 26.336 44.3844 26.4456C44.4927 26.5532 44.6245 26.6353 44.7804 26.6932C44.9474 26.753 45.1236 26.7823 45.3007 26.78C45.4611 26.779 45.6205 26.753 45.7733 26.7037ZM44.717 24.8987C44.8463 24.7802 45.018 24.7223 45.2345 24.7223C45.4378 24.7223 45.6017 24.7777 45.7206 24.8885C45.8395 24.999 45.9026 25.152 45.9133 25.3467H44.4873C44.5075 25.1743 44.5892 25.0149 44.717 24.8987Z" fill="white"/>
<path d="M46.9136 24.3823H47.2939L48.197 25.5445L49.0525 24.3823H49.4221V26.7276H49.0051V25.0176L48.1917 26.1056H48.1757L47.3309 25.0172V26.7272H46.9136V24.3823Z" fill="white"/>
<path fill-rule="evenodd" clip-rule="evenodd" d="M50.5575 24.3902C50.4308 24.4236 50.3098 24.4759 50.1985 24.5454L50.3093 24.8779C50.4043 24.8304 50.4994 24.7908 50.5945 24.7566C50.6896 24.7221 50.811 24.7063 50.9563 24.7063C51.0724 24.7063 51.165 24.7249 51.2362 24.7617C51.3075 24.7959 51.3602 24.8488 51.3972 24.9121C51.4343 24.9754 51.4581 25.0543 51.4713 25.1464C51.4845 25.2386 51.4898 25.3386 51.4898 25.4469C51.4044 25.3869 51.3071 25.3464 51.2046 25.3282C51.1054 25.3083 51.0047 25.2977 50.9036 25.2965C50.7793 25.2965 50.6632 25.3152 50.5521 25.3466C50.4414 25.3782 50.3463 25.4257 50.2697 25.4891C50.1916 25.5523 50.1284 25.6323 50.0849 25.7234C50.0384 25.8231 50.0149 25.9321 50.0162 26.0423C50.0162 26.2715 50.0824 26.4508 50.2142 26.5774C50.3463 26.7038 50.5205 26.7668 50.737 26.7668C50.9325 26.7668 51.0884 26.7326 51.2071 26.6642C51.326 26.5955 51.4211 26.5166 51.4898 26.427V26.7301H51.8805V25.2915C51.8805 24.9856 51.8146 24.7487 51.68 24.5824C51.5479 24.4165 51.3128 24.3323 50.9802 24.3323C50.8321 24.3323 50.6921 24.3532 50.5575 24.3902ZM51.2551 26.2902C51.16 26.3586 51.0357 26.39 50.8826 26.39C50.748 26.39 50.6422 26.3558 50.5685 26.2899C50.4944 26.2215 50.4574 26.1319 50.4574 26.0211C50.4574 25.9555 50.4706 25.9001 50.4997 25.8501C50.5289 25.8 50.5685 25.7604 50.6133 25.7288C50.6624 25.6957 50.7169 25.6715 50.7743 25.6575C50.8352 25.6417 50.8958 25.6338 50.9592 25.6338C51.1653 25.6338 51.342 25.6838 51.4873 25.7893V26.0869C51.4188 26.1643 51.3408 26.2329 51.2551 26.2902ZM55.5646 23.5574C55.649 23.5181 55.7281 23.4523 55.8021 23.3547L55.575 23.0254C55.5169 23.1046 55.451 23.1597 55.3769 23.1888C55.2984 23.2197 55.2171 23.2427 55.1341 23.2572L55.055 23.2714C54.9862 23.2835 54.9125 23.2968 54.8331 23.3101C54.7058 23.3338 54.5817 23.3727 54.4634 23.426C54.2758 23.5077 54.1255 23.6182 54.0119 23.7578C53.8983 23.8975 53.8085 24.0555 53.7477 24.2297C53.686 24.4061 53.6444 24.5891 53.6237 24.775C53.6024 24.965 53.592 25.1464 53.592 25.3203C53.592 25.5445 53.6209 25.7471 53.6789 25.9289C53.7373 26.111 53.8189 26.2636 53.9271 26.3874C54.0354 26.5141 54.165 26.6091 54.3182 26.6775C54.4713 26.7459 54.6429 26.7801 54.8356 26.7801C55.0126 26.7801 55.1764 26.7459 55.3242 26.6826C55.4667 26.6217 55.5959 26.5332 55.7046 26.422C55.81 26.3137 55.8947 26.1845 55.9528 26.0397C56.0133 25.8947 56.0425 25.7392 56.0425 25.5758C56.0425 25.3994 56.0162 25.2389 55.966 25.0964C55.9197 24.9605 55.846 24.8359 55.7494 24.7303C55.6527 24.6265 55.5345 24.5455 55.4033 24.4928C55.2588 24.4354 55.1046 24.4068 54.9492 24.4086C54.8488 24.4086 54.7512 24.4219 54.6561 24.4482C54.5636 24.4745 54.4748 24.5126 54.3919 24.5615C54.3114 24.6081 54.2377 24.6656 54.1729 24.7325C54.1095 24.7987 54.0567 24.8725 54.0197 24.9567H54.0091C54.0172 24.8488 54.0304 24.7382 54.0539 24.6249C54.0778 24.5115 54.112 24.4032 54.1572 24.3006C54.202 24.198 54.2601 24.1055 54.3313 24.0213C54.4077 23.9363 54.5014 23.8689 54.6059 23.8237C54.7209 23.7685 54.8425 23.7286 54.9677 23.7053L55.0506 23.6901C55.1331 23.6749 55.2119 23.6603 55.2872 23.6445C55.3876 23.6236 55.4799 23.5967 55.5646 23.5574ZM54.0963 25.8105C54.0555 25.6774 54.0359 25.5387 54.0382 25.3994C54.0559 25.3195 54.0882 25.2436 54.1333 25.1756C54.1782 25.1043 54.2362 25.0413 54.305 24.9856C54.4601 24.863 54.6518 24.7971 54.8488 24.7987C55.0945 24.7987 55.2793 24.875 55.4086 25.0255C55.5382 25.1781 55.6016 25.3678 55.6016 25.597C55.6016 25.7104 55.5803 25.8133 55.5436 25.908C55.5079 26.0014 55.454 26.0866 55.385 26.1586C55.3161 26.2306 55.2335 26.2878 55.1422 26.327C55.0471 26.3691 54.9439 26.3903 54.8278 26.3903C54.7117 26.3903 54.6059 26.3665 54.5083 26.319C54.4113 26.2725 54.3256 26.205 54.2573 26.1214C54.1857 26.0283 54.1312 25.923 54.0963 25.8105ZM59.243 24.3823H58.8257V26.7275H59.243V24.3823ZM56.6444 24.3823H57.0618V25.0859H57.4474C57.6294 25.0859 57.7772 25.1097 57.8962 25.1543C58.0151 25.1993 58.1102 25.2598 58.1814 25.3336C58.2527 25.4074 58.3029 25.4944 58.3321 25.5917C58.3609 25.6892 58.3769 25.7893 58.3769 25.8947C58.3769 26.0002 58.3609 26.1005 58.3267 26.2006C58.295 26.3007 58.2395 26.3874 58.1654 26.4666C58.0917 26.5458 57.9913 26.6091 57.8645 26.6566C57.7377 26.7038 57.5846 26.7301 57.3997 26.7301H56.6419V24.3823H56.6444ZM57.0618 25.4783V26.3374H57.3655C57.5742 26.3374 57.722 26.3007 57.8064 26.2266C57.8912 26.1528 57.9332 26.0477 57.9332 25.908C57.9332 25.7655 57.8883 25.6578 57.8039 25.5837C57.7167 25.51 57.5714 25.4729 57.3709 25.4729H57.0618V25.4783Z" fill="white"/>
<path d="M62.0027 26.3899C61.9023 26.5191 61.7702 26.6166 61.6117 26.6825C61.4491 26.7492 61.2751 26.7832 61.0995 26.7825C60.925 26.7849 60.7514 26.7555 60.5871 26.6958C60.4395 26.6418 60.3047 26.5575 60.1911 26.4481C60.0789 26.3386 59.9907 26.2066 59.9322 26.0605C59.8694 25.9004 59.838 25.7295 59.8399 25.5574C59.8399 25.3864 59.8688 25.228 59.9297 25.0779C59.9877 24.9275 60.0721 24.7986 60.1779 24.6903C60.2837 24.5798 60.4101 24.4956 60.5529 24.4297C60.7034 24.3628 60.8664 24.3295 61.0308 24.3322C61.2182 24.3322 61.3926 24.3559 61.5511 24.4031C61.7096 24.4506 61.8442 24.5298 61.955 24.6406L61.7623 24.9699C61.6691 24.8847 61.5594 24.82 61.44 24.7799C61.3266 24.7431 61.2081 24.7245 61.0889 24.7248C60.9834 24.7248 60.883 24.7457 60.7851 24.7853C60.689 24.8244 60.6013 24.8817 60.5265 24.9541C60.4506 25.029 60.3904 25.1187 60.3495 25.2176C60.3047 25.3202 60.2836 25.4335 60.2836 25.5599C60.2836 25.6891 60.3072 25.805 60.3521 25.9051C60.3969 26.008 60.4578 26.0951 60.5344 26.1685C60.611 26.2426 60.7007 26.2977 60.8036 26.3348C60.9069 26.3715 61.0151 26.3927 61.1312 26.3927C61.2737 26.3927 61.4005 26.3636 61.5141 26.3082C61.6239 26.2547 61.7225 26.1805 61.8047 26.0897L62.0027 26.3899ZM62.2164 24.3822H64.3581V24.7986H63.497V26.7271H63.08V24.7986H62.2192V24.3822H62.2164Z" fill="white"/>
<path fill-rule="evenodd" clip-rule="evenodd" d="M65.2299 24.3826H64.8125V27.771H65.2299V26.6196C65.3143 26.675 65.4147 26.7146 65.5308 26.7409C65.6469 26.7671 65.7684 26.7801 65.8926 26.7801C66.0775 26.7801 66.2438 26.7459 66.3944 26.6829C66.5389 26.6205 66.6698 26.5302 66.7798 26.4169C66.888 26.3032 66.9699 26.1715 67.028 26.016C67.086 25.8608 67.1152 25.6946 67.1152 25.5182C67.1152 25.344 67.0889 25.1835 67.0387 25.0385C66.9914 24.9007 66.9178 24.7737 66.8221 24.6645C66.7282 24.558 66.6117 24.4742 66.4813 24.4194C66.3388 24.3576 66.1849 24.327 66.0298 24.3298C65.8663 24.3298 65.7131 24.3614 65.5678 24.4248C65.4225 24.4881 65.3089 24.5641 65.2299 24.6591V24.3826ZM65.5205 24.8174C65.6394 24.7541 65.7687 24.7224 65.9086 24.7224C66.0301 24.7224 66.1383 24.7408 66.2362 24.7804C66.3313 24.82 66.4104 24.8754 66.4766 24.9492C66.5425 25.0229 66.5927 25.1075 66.6244 25.2072C66.6586 25.3073 66.6746 25.4156 66.6746 25.534C66.6746 25.6607 66.6533 25.7738 66.6166 25.8792C66.582 25.9792 66.527 26.0708 66.4553 26.1481C66.3832 26.2244 66.2959 26.2845 66.1992 26.3244C66.0914 26.37 65.9753 26.3925 65.8584 26.3903C65.7451 26.3903 65.6394 26.3773 65.539 26.351C65.429 26.3209 65.3247 26.2727 65.2302 26.2085V25.0464C65.3039 24.9571 65.4018 24.8808 65.5205 24.8174ZM70.3157 24.3823H69.8984V26.7276H70.3157V24.3823ZM67.7146 24.3823H68.132V25.086H68.5173C68.6996 25.086 68.8474 25.1097 68.9664 25.1544C69.0853 25.1993 69.1804 25.2598 69.2516 25.3336C69.3229 25.4074 69.3731 25.4945 69.4019 25.5917C69.4311 25.6892 69.4468 25.7893 69.4468 25.8947C69.4468 26.0002 69.4311 26.1006 69.3969 26.2006C69.3652 26.3007 69.3097 26.3875 69.2356 26.4666C69.1619 26.5458 69.0615 26.6091 68.9347 26.6566C68.8079 26.7038 68.6548 26.7301 68.4699 26.7301H67.7121V24.3823H67.7146ZM68.1348 25.4783V26.3374H68.4385C68.6469 26.3374 68.795 26.3007 68.8794 26.2266C68.9639 26.1528 69.0062 26.0477 69.0062 25.908C69.0062 25.7655 68.9614 25.6579 68.8769 25.5838C68.7897 25.51 68.6444 25.4729 68.4439 25.4729H68.1348V25.4783Z" fill="white"/>
<path d="M72.3175 25.5128L73.21 26.7276H72.6978L72.0084 25.7788L71.3086 26.7276H70.8228L71.71 25.5337L70.8755 24.3823H71.388L72.0244 25.2677L72.6712 24.3823H73.1572L72.3175 25.5128ZM35.6594 29.626H34.3788V31.5811H33.9614V29.2362H36.0765V31.5811H35.6594V29.626ZM38.4451 29.6523H37.6214L37.5947 30.0475C37.5658 30.3822 37.5263 30.6511 37.4707 30.8563C37.4152 31.0621 37.3465 31.2201 37.2674 31.3306C37.1883 31.4415 37.0957 31.5178 36.99 31.5548C36.8809 31.5947 36.7655 31.6144 36.6495 31.6128L36.6178 31.2068C36.6627 31.2093 36.7154 31.1989 36.7735 31.1726C36.8318 31.1463 36.8899 31.0884 36.9451 31.0016C37.0007 30.9117 37.0509 30.7853 37.0957 30.6219C37.1406 30.456 37.1698 30.24 37.1855 29.9683L37.2278 29.2384H38.8625V31.5836H38.4451V29.6523Z" fill="white"/>
<path fill-rule="evenodd" clip-rule="evenodd" d="M39.9877 29.2415C39.8527 29.2783 39.7313 29.3308 39.6284 29.3967L39.7394 29.7289C39.8345 29.6814 39.9296 29.6418 40.0244 29.6076C40.1195 29.5734 40.2412 29.5576 40.3862 29.5576C40.5026 29.5576 40.5949 29.5759 40.6661 29.6127C40.7377 29.6472 40.7904 29.6998 40.8274 29.7631C40.8641 29.8264 40.888 29.9056 40.9012 29.9974C40.9143 30.0899 40.9197 30.19 40.9197 30.2979C40.8343 30.238 40.7369 30.1976 40.6344 30.1795C40.5353 30.1596 40.4345 30.149 40.3335 30.1478C40.2095 30.1478 40.0931 30.1662 39.9823 30.1979C39.8712 30.2295 39.7762 30.277 39.6996 30.3404C39.6214 30.4036 39.5583 30.4837 39.5148 30.5747C39.4683 30.6744 39.445 30.7834 39.4463 30.8936C39.4463 31.1225 39.5122 31.3021 39.6444 31.4284C39.7762 31.5548 39.9506 31.6181 40.1672 31.6181C40.3627 31.6181 40.5183 31.5839 40.6372 31.5152C40.7559 31.4468 40.8509 31.3676 40.9197 31.278V31.5811H41.3107V30.1425C41.3107 29.8369 41.2445 29.5997 41.1098 29.4338C40.9777 29.2675 40.7427 29.1836 40.41 29.1836C40.2673 29.1837 40.1253 29.2034 39.9877 29.2415ZM40.6875 31.1409C40.5927 31.2096 40.4684 31.2413 40.3153 31.2413C40.1778 31.2413 40.0749 31.2071 40.0012 31.1409C39.9271 31.0725 39.8901 30.9829 39.8901 30.8724C39.8901 30.8065 39.9032 30.7511 39.9324 30.7011C39.9613 30.651 40.0012 30.6114 40.046 30.5798C40.0909 30.5481 40.1461 30.5244 40.207 30.5085C40.2674 30.4928 40.3295 30.4849 40.3918 30.4851C40.5977 30.4851 40.7747 30.5351 40.92 30.6403V30.9379C40.8514 31.0154 40.7733 31.0836 40.6875 31.1409Z" fill="white"/>
<path d="M41.7192 29.2361H43.861V29.6522H42.9999V31.581H42.5828V29.6525H41.7221V29.2361H41.7192Z" fill="white"/>
<path fill-rule="evenodd" clip-rule="evenodd" d="M45.8102 31.5574C45.9687 31.5074 46.1033 31.4308 46.2194 31.3256L46.0927 30.9988C46.0161 31.0675 45.9132 31.1255 45.7889 31.173C45.6649 31.2205 45.525 31.2439 45.3718 31.2439C45.1421 31.2439 44.952 31.1834 44.8013 31.0596C44.6507 30.9358 44.5691 30.762 44.5506 30.5403H46.3569C46.3751 30.4589 46.3832 30.3664 46.3832 30.2585C46.3832 30.0979 46.3541 29.9529 46.296 29.8211C46.2419 29.6932 46.1628 29.5777 46.0635 29.4814C45.9631 29.3856 45.8446 29.3111 45.7151 29.2625C45.5796 29.2095 45.4353 29.1826 45.2899 29.1834C45.0944 29.1834 44.9228 29.2176 44.7725 29.2809C44.6303 29.3411 44.5017 29.4299 44.3946 29.5418C44.2906 29.6531 44.2106 29.785 44.1596 29.9291C44.104 30.0827 44.0762 30.2451 44.0777 30.4086C44.0777 30.5932 44.1094 30.7616 44.1674 30.9121C44.2258 31.0622 44.3127 31.1914 44.421 31.2993C44.5293 31.4073 44.6614 31.489 44.8173 31.547C44.9842 31.6068 45.1603 31.6363 45.3373 31.6341C45.4933 31.6341 45.6518 31.6075 45.8102 31.5574ZM44.7514 29.7499C44.8807 29.6315 45.0524 29.5735 45.2689 29.5735C45.4751 29.5735 45.6361 29.6315 45.755 29.7394C45.8736 29.8503 45.937 30.0029 45.9477 30.198H44.5217C44.5419 30.0254 44.6235 29.8662 44.7514 29.7499ZM46.5866 29.2363H47.1147L47.92 30.3668L47.0592 31.5812H46.547L47.4499 30.3664L46.5866 29.2363ZM48.0229 29.2363H48.4402V31.5812H48.0229V29.2363ZM49.9321 31.5812L49.0133 30.3664L49.8715 29.2359H49.3537L48.5432 30.3664L49.4146 31.5812H49.9321ZM51.8388 31.5574C51.9973 31.5074 52.1319 31.4308 52.248 31.3256L52.1212 30.9988C52.0446 31.0675 51.9417 31.1255 51.8178 31.173C51.6935 31.2205 51.5535 31.2439 51.4004 31.2439C51.1707 31.2439 50.9805 31.1834 50.8299 31.0596C50.6796 30.9358 50.5977 30.762 50.5792 30.5403H52.3854C52.4039 30.4589 52.4118 30.3664 52.4118 30.2585C52.4118 30.0979 52.3829 29.9529 52.3246 29.8211C52.2705 29.6933 52.1915 29.5778 52.0923 29.4814C51.9918 29.3856 51.8733 29.3111 51.7437 29.2625C51.6081 29.2095 51.4639 29.1826 51.3185 29.1834C51.1233 29.1834 50.9516 29.2176 50.801 29.2809C50.659 29.3412 50.5305 29.4299 50.4235 29.5418C50.3193 29.653 50.2392 29.7849 50.1885 29.9291C50.1327 30.0826 50.1049 30.2451 50.1066 30.4086C50.1066 30.5932 50.1383 30.7616 50.1963 30.9121C50.2544 31.0622 50.3416 31.1914 50.4499 31.2993C50.5581 31.4073 50.6899 31.489 50.8459 31.547C51.0129 31.6068 51.189 31.6363 51.3662 31.6341C51.5267 31.6329 51.686 31.607 51.8388 31.5574ZM50.78 29.7499C50.9096 29.6315 51.0812 29.5735 51.2978 29.5735C51.5011 29.5735 51.6646 29.6315 51.7836 29.7394C51.9025 29.8503 51.9659 30.0029 51.9762 30.198H50.5503C50.5704 30.0254 50.6521 29.8662 50.78 29.7499ZM54.1048 28.4484C53.8591 28.4484 53.7244 28.3113 53.7034 28.0374H53.3099C53.3099 28.1425 53.3284 28.2375 53.3626 28.3271C53.3971 28.4167 53.4474 28.493 53.5133 28.5564C53.5792 28.6197 53.6639 28.6697 53.7615 28.709C53.8591 28.7486 53.9727 28.767 54.102 28.767C54.2209 28.767 54.3266 28.7486 54.4217 28.709C54.5168 28.6723 54.5959 28.6197 54.6646 28.5564C54.7305 28.493 54.7836 28.4167 54.8203 28.3271C54.8573 28.2375 54.8758 28.1425 54.8758 28.0374H54.4851C54.4666 28.3113 54.337 28.4484 54.1048 28.4484ZM52.977 29.2359V31.5812H53.3943L54.7515 29.8341V31.5812H55.1689V29.2359H54.7515L53.3943 30.983V29.2359H52.977Z" fill="white"/>
</svg>
